<svg width="177" height="51" viewBox="0 0 177 51" fill="none" xmlns="http://www.w3.org/2000/svg">
<path d="M10.4329 21.003C10.4329 20.5737 10.5615 20.154 10.8024 19.7971C11.0433 19.4402 11.3858 19.1621 11.7864 18.998C12.187 18.8338 12.6277 18.791 13.0529 18.875C13.4781 18.959 13.8685 19.1659 14.1749 19.4697C14.4812 19.7734 14.6897 20.1604 14.7739 20.5815C14.8582 21.0026 14.8143 21.439 14.648 21.8354C14.4817 22.2318 14.2003 22.5705 13.8396 22.8086C13.4788 23.0467 13.0548 23.1734 12.6213 23.1728C12.0406 23.172 11.484 22.9431 11.0737 22.5362C10.6633 22.1294 10.4329 21.5779 10.4329 21.003ZM9.68128 33.8549C7.95232 32.4498 6.3698 30.8768 4.9574 29.1594C6.40389 27.5684 7.97538 26.0933 9.65713 24.7479C9.74196 24.6789 9.81222 24.5939 9.86389 24.498C9.91556 24.402 9.94764 24.2969 9.95829 24.1887C9.96894 24.0804 9.95796 23.9712 9.92596 23.8671C9.89397 23.7631 9.8416 23.6663 9.77184 23.5823C9.70207 23.4983 9.61628 23.4287 9.51936 23.3776C9.42245 23.3264 9.31631 23.2947 9.20699 23.2841C9.09768 23.2736 8.98734 23.2844 8.88227 23.3161C8.7772 23.3478 8.67947 23.3997 8.59464 23.4687C6.94199 24.7955 5.39032 26.241 3.95225 27.7936C2.50943 25.6237 2.02346 23.7616 2.72374 22.5661C3.42402 21.3706 5.25321 20.8505 7.94567 21.0089C8.16601 21.0203 8.38195 20.9449 8.54643 20.7993C8.7109 20.6537 8.81057 20.4495 8.82371 20.2315C8.83685 20.0134 8.7624 19.799 8.61659 19.635C8.47078 19.471 8.26542 19.3708 8.04528 19.3561C4.64046 19.1559 2.31021 19.9778 1.27186 21.7472C0.625914 22.859 0.242569 24.8466 2.10798 27.9998C2.32229 28.3644 2.56376 28.738 2.82939 29.1146C0.236532 32.3425 -0.638819 35.1341 0.471973 37.038C1.3111 38.4756 3.11916 39.2079 5.77238 39.2079C6.76039 39.2009 7.74637 39.1179 8.72141 38.9598C8.94076 38.9257 9.13745 38.8067 9.26821 38.6291C9.39898 38.4514 9.4531 38.2295 9.41868 38.0123C9.38425 37.7951 9.2641 37.6004 9.08466 37.4709C8.90522 37.3414 8.68118 37.2878 8.46183 37.3219C5.02682 37.8539 2.64526 37.4475 1.92385 36.2101C1.29903 35.1401 1.81518 33.1376 3.87075 30.4775C5.29859 32.1741 6.8842 33.7341 8.60671 35.1371C8.75677 35.2631 8.94727 35.3319 9.144 35.3314C9.31614 35.3319 9.48427 35.2799 9.62541 35.1823C9.76656 35.0847 9.87385 34.9464 9.93262 34.7861C9.9914 34.6259 9.9988 34.4517 9.95382 34.2871C9.90883 34.1226 9.81365 33.9758 9.68128 33.8668V33.8549ZM12.1111 24.7988C12.001 24.798 11.8917 24.8188 11.7898 24.8601C11.6878 24.9014 11.5951 24.9623 11.5171 25.0393C11.439 25.1163 11.3772 25.2079 11.3351 25.3087C11.2931 25.4095 11.2716 25.5176 11.272 25.6267V25.7851C11.272 28.0386 11.3807 30.2683 11.592 32.4232C11.6122 32.6283 11.7086 32.8186 11.8626 32.9573C12.0165 33.0959 12.217 33.1729 12.4251 33.1734H12.5066C12.7256 33.1515 12.9271 33.0452 13.0677 32.8774C13.2083 32.7097 13.2767 32.494 13.2582 32.2768C13.0529 30.1846 12.9563 27.9968 12.9563 25.797V25.6446C12.9588 25.5338 12.9386 25.4236 12.8971 25.3206C12.8555 25.2176 12.7935 25.124 12.7146 25.0453C12.6357 24.9667 12.5416 24.9046 12.4379 24.8627C12.3342 24.8208 12.2231 24.8001 12.1111 24.8017V24.7988ZM24.68 31.1739C22.2893 32.501 19.8197 33.6837 17.2848 34.7157C17.1054 34.7889 16.9573 34.9214 16.8655 35.0906C16.7737 35.2598 16.7439 35.4553 16.7813 35.6438C16.8186 35.8323 16.9208 36.0022 17.0704 36.1245C17.22 36.2468 17.4077 36.314 17.6017 36.3147C17.7104 36.3141 17.818 36.2928 17.9187 36.2519C20.5154 35.1941 23.0454 33.9825 25.495 32.6235C25.6759 32.5099 25.8061 32.332 25.8588 32.1264C25.9116 31.9208 25.8829 31.703 25.7787 31.5177C25.6745 31.3323 25.5027 31.1934 25.2984 31.1295C25.0941 31.0656 24.8728 31.0815 24.68 31.1739ZM43.8713 12.2278C42.6096 10.0669 39.2199 9.50197 34.0614 10.5959C32.1404 11.0152 30.2513 11.5665 28.4078 12.2457C28.0831 10.8207 27.6719 9.41637 27.1763 8.04043C25.4316 3.29717 23.1436 0.789551 20.5447 0.789551C15.8902 0.789551 13.0529 8.76672 11.9451 16.2328C11.9131 16.4504 11.9697 16.6717 12.1024 16.8479C12.2352 17.0242 12.4332 17.1411 12.653 17.1728C12.8727 17.2045 13.0962 17.1485 13.2742 17.017C13.4522 16.8856 13.5702 16.6895 13.6023 16.4719C14.8247 8.21378 17.6802 2.44835 20.5447 2.44835C22.3226 2.44835 24.1669 4.69295 25.5885 8.60532C26.0853 9.99154 26.4946 11.407 26.814 12.8435C23.719 14.0806 20.717 15.5348 17.8311 17.1952C17.3361 17.4941 16.829 17.775 16.3219 18.0918C16.2279 18.1484 16.1462 18.2226 16.0812 18.3105C16.0163 18.3983 15.9694 18.4979 15.9433 18.6036C15.9173 18.7094 15.9125 18.8192 15.9293 18.9267C15.9461 19.0343 15.9841 19.1376 16.0412 19.2306C16.0983 19.3236 16.1733 19.4046 16.262 19.4689C16.3506 19.5332 16.4513 19.5796 16.558 19.6054C16.6648 19.6312 16.7757 19.6359 16.8844 19.6193C16.993 19.6027 17.0973 19.5651 17.1912 19.5085C17.6892 19.2097 18.1843 18.9108 18.6672 18.6418C21.3971 17.0704 24.2331 15.6873 27.1551 14.5023C27.764 17.857 28.0911 21.256 28.1331 24.6643C28.1363 24.8818 28.2258 25.0893 28.3822 25.242C28.5387 25.3946 28.7495 25.4802 28.9692 25.4802H28.9843C29.2061 25.4755 29.417 25.3843 29.5713 25.2265C29.7256 25.0687 29.8108 24.857 29.8084 24.6374C29.7638 21.034 29.4063 17.4412 28.7398 13.8985C35.9237 11.2684 41.2483 11.0831 42.4074 13.0706C43.0413 14.1586 42.4829 16.0146 40.8348 18.2921C39.0418 20.7519 36.1592 23.5046 32.4887 26.1945C32.4005 26.2595 32.3261 26.341 32.2698 26.4345C32.2134 26.5279 32.1761 26.6314 32.1602 26.7391C32.1442 26.8468 32.1498 26.9565 32.1766 27.0621C32.2035 27.1676 32.2511 27.2669 32.3167 27.3542C32.3823 27.4415 32.4646 27.5152 32.559 27.571C32.6533 27.6269 32.7579 27.6637 32.8666 27.6796C32.9754 27.6954 33.0862 27.6898 33.1928 27.6632C33.2994 27.6366 33.3997 27.5895 33.4879 27.5246C37.2971 24.7151 40.3065 21.8458 42.1931 19.2425C43.648 17.2281 45.1149 14.3887 43.8713 12.2278ZM33.5361 31.1141C33.368 30.9707 33.1492 30.8992 32.9279 30.9154C32.7066 30.9317 32.5008 31.0343 32.3559 31.2008C32.211 31.3673 32.1388 31.5839 32.1553 31.8031C32.1717 32.0222 32.2753 32.226 32.4435 32.3694C37.5748 36.7361 40.1707 41.1117 38.9211 43.2547C38.0578 44.7491 35.3412 45.2064 31.4685 44.5459C30.0207 44.2904 28.5926 43.9359 27.1944 43.4849C28.2536 40.4183 28.9712 37.2462 29.3345 34.0252C29.3617 33.8073 29.3003 33.5875 29.1639 33.4143C29.0275 33.2411 28.8272 33.1287 28.607 33.1017C28.3869 33.0748 28.1649 33.1355 27.99 33.2706C27.8151 33.4057 27.7015 33.604 27.6743 33.822C27.3242 36.9301 26.6319 39.9909 25.6097 42.9499C22.7311 41.8913 19.9491 40.5914 17.2938 39.0644C17.1024 38.9695 16.8816 38.9506 16.6765 39.0116C16.4715 39.0726 16.2977 39.209 16.1909 39.3927C16.0841 39.5764 16.0522 39.7936 16.1018 39.9998C16.1514 40.2061 16.2787 40.3857 16.4577 40.502C19.1821 42.0676 22.0357 43.4014 24.9879 44.4891C24.8973 44.6924 24.8068 44.8896 24.7132 45.0869C23.4454 47.6961 21.9694 49.1308 20.5598 49.1308C18.5193 49.1308 16.4215 46.1898 14.9515 41.2642C14.9202 41.1598 14.8684 41.0625 14.7991 40.9779C14.7299 40.8933 14.6444 40.8231 14.5477 40.7712C14.451 40.7193 14.3449 40.6867 14.2356 40.6754C14.1262 40.6641 14.0156 40.6743 13.9101 40.7053C13.8047 40.7363 13.7065 40.7875 13.621 40.8561C13.5356 40.9247 13.4647 41.0093 13.4122 41.1051C13.3598 41.2008 13.327 41.3059 13.3156 41.4142C13.3041 41.5225 13.3144 41.632 13.3457 41.7364C15.0904 47.5736 17.653 50.7896 20.5598 50.7896C22.6727 50.7896 24.6347 49.065 26.2224 45.8072C26.3432 45.5591 26.4609 45.2991 26.5756 45.0361C28.0827 45.5266 29.6229 45.9111 31.1848 46.1868C32.296 46.3809 33.4219 46.4808 34.5503 46.4856C37.4239 46.4856 39.4463 45.6637 40.3699 44.0767C42.0995 41.0938 39.5429 36.2459 33.5211 31.1141H33.5361ZM25.7606 25.6506L25.2324 25.3517C22.7281 23.9121 20.1155 22.6661 17.4176 21.6246C17.2132 21.5582 16.9909 21.572 16.7965 21.6632C16.6021 21.7544 16.4505 21.9161 16.3731 22.1148C16.2956 22.3135 16.2981 22.5341 16.3802 22.731C16.4622 22.9279 16.6175 23.086 16.8139 23.1728C19.4303 24.1829 21.9634 25.393 24.3902 26.7923L24.9034 27.0912C25.0318 27.1679 25.179 27.2083 25.329 27.2077C25.5184 27.2161 25.705 27.1606 25.8583 27.0501C26.0116 26.9396 26.1225 26.7808 26.1727 26.5998C26.2229 26.4188 26.2094 26.2262 26.1345 26.0537C26.0597 25.8812 25.9278 25.7391 25.7606 25.6506ZM15.3258 36.9543C15.3258 36.5257 15.1975 36.1068 14.957 35.7504C14.7165 35.3941 14.3747 35.1164 13.9749 34.9523C13.575 34.7883 13.135 34.7454 12.7105 34.829C12.286 34.9126 11.896 35.119 11.59 35.4221C11.2839 35.7251 11.0755 36.1112 10.9911 36.5316C10.9066 36.9519 10.95 37.3876 11.1156 37.7835C11.2812 38.1795 11.5617 38.5179 11.9216 38.756C12.2815 38.9941 12.7046 39.1212 13.1374 39.1212C13.7178 39.1212 14.2744 38.8929 14.6848 38.4865C15.0952 38.0802 15.3258 37.529 15.3258 36.9543ZM31.1697 29.3029C31.1703 28.8736 31.0423 28.4538 30.8018 28.0966C30.5614 27.7393 30.2194 27.4608 29.819 27.2961C29.4186 27.1314 28.9779 27.088 28.5526 27.1714C28.1273 27.2548 27.7366 27.4612 27.4298 27.7645C27.123 28.0679 26.914 28.4545 26.8292 28.8755C26.7444 29.2965 26.7876 29.7329 26.9534 30.1296C27.1192 30.5263 27.4 30.8653 27.7605 31.1039C28.1209 31.3425 28.5447 31.4698 28.9783 31.4698C29.2666 31.4698 29.552 31.4135 29.8183 31.3041C30.0845 31.1946 30.3264 31.0343 30.53 30.8321C30.7335 30.63 30.8948 30.3901 31.0046 30.1262C31.1144 29.8622 31.1705 29.5794 31.1697 29.2939V29.3029Z" fill="url(#paint0_linear_2711_1410)"/>
<path d="M134.566 17.7042C139.999 17.7042 143.92 21.673 143.92 26.5514C143.92 31.4297 139.999 35.3985 134.566 35.3985H128.83C128.739 35.3985 128.651 35.3622 128.586 35.2976C128.522 35.233 128.485 35.1454 128.485 35.054V18.0349C128.485 17.9436 128.522 17.8559 128.586 17.7913C128.651 17.7267 128.739 17.6904 128.83 17.6904L134.566 17.7042ZM132.027 31.5262C132.027 31.6175 132.063 31.7052 132.128 31.7698C132.193 31.8344 132.28 31.8707 132.372 31.8707H134.57C137.856 31.8707 140.13 29.7209 140.13 26.5617C140.13 23.4025 137.856 21.2527 134.57 21.2527H132.372C132.28 21.2527 132.193 21.289 132.128 21.3536C132.063 21.4182 132.027 21.5059 132.027 21.5972V31.5262Z" fill="white"/>
<path d="M157.801 18.0335V20.9067C157.801 20.9981 157.764 21.0857 157.7 21.1504C157.635 21.215 157.548 21.2513 157.456 21.2513H149.532C149.441 21.2513 149.353 21.2876 149.288 21.3522C149.224 21.4168 149.188 21.5044 149.188 21.5958V24.0901C149.188 24.1814 149.224 24.2691 149.288 24.3337C149.353 24.3983 149.441 24.4346 149.532 24.4346H155.186C155.277 24.4346 155.365 24.4709 155.429 24.5355C155.494 24.6001 155.53 24.6877 155.53 24.7791V27.6524C155.53 27.7437 155.494 27.8314 155.429 27.896C155.365 27.9606 155.277 27.9969 155.186 27.9969H149.539C149.448 27.9969 149.36 28.0332 149.295 28.0978C149.231 28.1624 149.194 28.25 149.194 28.3414V31.5936C149.194 31.685 149.231 31.7726 149.295 31.8372C149.36 31.9018 149.448 31.9381 149.539 31.9381H157.721C157.813 31.9381 157.9 31.9744 157.965 32.039C158.03 32.1036 158.066 32.1913 158.066 32.2826V35.1593C158.066 35.2507 158.03 35.3383 157.965 35.403C157.9 35.4676 157.813 35.5039 157.721 35.5039H146.008C145.916 35.5039 145.829 35.4676 145.764 35.403C145.699 35.3383 145.663 35.2507 145.663 35.1593V18.0335C145.663 17.9421 145.699 17.8545 145.764 17.7899C145.829 17.7253 145.916 17.689 146.008 17.689H157.477C157.565 17.6942 157.647 17.7329 157.707 17.7969C157.767 17.8609 157.801 17.9456 157.801 18.0335Z" fill="white"/>
<path d="M164.26 17.8434L167.64 22.739C167.672 22.7811 167.713 22.8152 167.761 22.8388C167.809 22.8623 167.861 22.8745 167.914 22.8745C167.967 22.8745 168.019 22.8623 168.067 22.8388C168.114 22.8152 168.156 22.7811 168.188 22.739L171.567 17.8434C171.599 17.8 171.641 17.7646 171.689 17.7401C171.736 17.7155 171.789 17.7025 171.843 17.7021H175.436C175.496 17.7056 175.554 17.7245 175.604 17.7571C175.655 17.7897 175.696 17.8348 175.723 17.888C175.75 17.9413 175.764 18.0007 175.761 18.0605C175.759 18.1204 175.741 18.1785 175.709 18.2293L170.196 25.8465C170.156 25.9042 170.135 25.9727 170.135 26.0429C170.135 26.1131 170.156 26.1816 170.196 26.2392L176.46 34.8521C176.491 34.9026 176.51 34.9605 176.512 35.02C176.515 35.0796 176.502 35.1388 176.475 35.192C176.448 35.2451 176.407 35.2903 176.358 35.3231C176.308 35.3559 176.25 35.3753 176.191 35.3792H172.601C172.548 35.3783 172.496 35.3651 172.448 35.3406C172.401 35.3161 172.36 35.2809 172.329 35.238L168.195 29.3227C168.162 29.2812 168.121 29.2476 168.074 29.2245C168.027 29.2014 167.975 29.1894 167.922 29.1894C167.87 29.1894 167.818 29.2014 167.771 29.2245C167.724 29.2476 167.682 29.2812 167.65 29.3227L163.516 35.238C163.485 35.2809 163.444 35.3161 163.396 35.3406C163.349 35.3651 163.297 35.3783 163.244 35.3792H159.626C159.567 35.3753 159.509 35.3559 159.46 35.3231C159.41 35.2903 159.369 35.2451 159.342 35.192C159.315 35.1388 159.302 35.0796 159.305 35.02C159.308 34.9605 159.326 34.9026 159.358 34.8521L165.624 26.2392C165.664 26.1816 165.686 26.1131 165.686 26.0429C165.686 25.9727 165.664 25.9042 165.624 25.8465L160.112 18.2293C160.08 18.1788 160.062 18.1209 160.06 18.0614C160.057 18.0018 160.07 17.9425 160.097 17.8894C160.124 17.8363 160.164 17.7911 160.214 17.7583C160.264 17.7255 160.321 17.7061 160.381 17.7021H163.985C164.038 17.7025 164.091 17.7155 164.139 17.7401C164.187 17.7646 164.228 17.8 164.26 17.8434Z" fill="white"/>
<path d="M90.5505 22.4677C91.506 21.8544 92.6125 21.517 93.7477 21.4927C95.739 21.4927 97.1722 22.0473 98.1472 22.9569C98.2451 23.0453 98.371 23.0963 98.5029 23.1007C98.6347 23.1051 98.7638 23.0627 98.8673 22.981C100.027 22.061 101.453 21.5391 102.933 21.4927C107.108 21.4927 108.917 23.8561 108.917 27.6147V34.4327C108.916 34.5801 108.857 34.7212 108.752 34.8251C108.648 34.929 108.506 34.9874 108.359 34.9874H106.244C106.096 34.9874 105.955 34.9289 105.851 34.8249C105.747 34.7209 105.689 34.5798 105.689 34.4327V27.9696C105.689 25.744 104.714 24.6002 102.822 24.6002C101.732 24.6127 100.689 25.0488 99.9146 25.8163C99.8576 25.8691 99.8119 25.933 99.7805 26.0041C99.7491 26.0752 99.7326 26.152 99.732 26.2298V34.4258C99.732 34.5729 99.6736 34.714 99.5696 34.818C99.4656 34.922 99.3245 34.9805 99.1774 34.9805H97.062C96.9888 34.9809 96.9163 34.9669 96.8487 34.9392C96.781 34.9116 96.7194 34.8708 96.6675 34.8192C96.6157 34.7677 96.5745 34.7064 96.5464 34.6389C96.5183 34.5713 96.5038 34.4989 96.5038 34.4258V27.9696C96.5038 25.744 95.5288 24.6002 93.6374 24.6002C92.5481 24.6129 91.5064 25.0491 90.7331 25.8163C90.6753 25.8686 90.6292 25.9324 90.5977 26.0036C90.5663 26.0748 90.5502 26.1519 90.5505 26.2298V34.4258C90.5496 34.5732 90.4903 34.7143 90.3858 34.8182C90.2812 34.9221 90.1398 34.9805 89.9923 34.9805H87.877C87.7298 34.9805 87.5888 34.922 87.4847 34.818C87.3807 34.714 87.3223 34.5729 87.3223 34.4258V22.4677C87.3223 22.3948 87.3366 22.3227 87.3645 22.2554C87.3924 22.1881 87.4332 22.127 87.4847 22.0754C87.5362 22.0239 87.5974 21.9831 87.6647 21.9552C87.732 21.9273 87.8041 21.913 87.877 21.913H89.9958C90.1426 21.9139 90.2832 21.9726 90.387 22.0764C90.4908 22.1803 90.5496 22.3208 90.5505 22.4677Z" fill="white"/>
<path d="M71.2982 32.596C71.2971 32.5095 71.2759 32.4244 71.2363 32.3474C71.1966 32.2705 71.1397 32.2038 71.0698 32.1527C71 32.1015 70.9192 32.0674 70.8339 32.0528C70.7485 32.0383 70.661 32.0438 70.5782 32.0689C70.1178 32.2143 69.638 32.2886 69.1553 32.2894C68.0425 32.2894 67.0674 31.5659 67.0674 29.3403V25.7229C67.0674 25.5749 67.1263 25.433 67.2309 25.3283C67.3356 25.2236 67.4776 25.1648 67.6256 25.1648H70.7435C70.8906 25.1648 71.0317 25.1064 71.1357 25.0024C71.2398 24.8983 71.2982 24.7573 71.2982 24.6102V22.4673C71.2987 22.3941 71.2847 22.3216 71.257 22.2539C71.2293 22.1862 71.1885 22.1247 71.137 22.0728C71.0854 22.021 71.0241 21.9798 70.9566 21.9517C70.8891 21.9236 70.8167 21.9091 70.7435 21.9091H67.6256C67.4776 21.9091 67.3356 21.8503 67.2309 21.7457C67.1263 21.641 67.0674 21.4991 67.0674 21.351V19.1255C67.0674 18.9784 67.009 18.8373 66.905 18.7333C66.801 18.6292 66.6599 18.5708 66.5128 18.5708H64.3698C64.2236 18.5708 64.0832 18.6282 63.9788 18.7306C63.8744 18.833 63.8144 18.9724 63.8117 19.1186V21.3441C63.8121 21.4173 63.7981 21.4898 63.7705 21.5575C63.7428 21.6252 63.702 21.6867 63.6505 21.7386C63.5989 21.7905 63.5376 21.8316 63.4701 21.8597C63.4026 21.8878 63.3301 21.9023 63.257 21.9023H62.0029C61.9298 21.9023 61.8574 21.9167 61.7899 21.9448C61.7223 21.9729 61.661 22.0141 61.6095 22.0659C61.5579 22.1178 61.5172 22.1794 61.4895 22.2471C61.4618 22.3148 61.4478 22.3872 61.4483 22.4604V24.6033C61.4483 24.7504 61.5067 24.8915 61.6107 24.9955C61.7147 25.0995 61.8558 25.1579 62.0029 25.1579H63.257C63.3301 25.1579 63.4026 25.1724 63.4701 25.2005C63.5376 25.2286 63.5989 25.2697 63.6505 25.3216C63.702 25.3735 63.7428 25.435 63.7705 25.5027C63.7981 25.5704 63.8121 25.6429 63.8117 25.716V29.6091C63.8117 33.2265 65.6204 35.3969 69.1553 35.3969C69.7492 35.376 70.3377 35.2764 70.9054 35.1006C71.0197 35.0658 71.1196 34.995 71.1904 34.8988C71.2611 34.8026 71.299 34.6861 71.2982 34.5666V32.596Z" fill="white"/>
<path d="M78.9354 21.4858C77.5598 21.4865 76.2153 21.895 75.0718 22.6598C73.9284 23.4245 73.0374 24.5111 72.5114 25.7821C71.9855 27.0532 71.8482 28.4517 72.117 29.8007C72.3858 31.1498 73.0485 32.3888 74.0215 33.3613C74.9944 34.3337 76.2339 34.9958 77.5831 35.264C78.9323 35.5321 80.3308 35.3941 81.6016 34.8676C82.8724 34.341 83.9586 33.4495 84.7228 32.3057C85.4869 31.1619 85.8948 29.8172 85.8948 28.4416C85.8948 27.5279 85.7148 26.6231 85.365 25.779C85.0152 24.9348 84.5025 24.1679 83.8562 23.5219C83.21 22.876 82.4427 22.3637 81.5984 22.0143C80.7541 21.665 79.8492 21.4854 78.9354 21.4858ZM78.9354 32.2795C78.1758 32.2822 77.4324 32.0595 76.7994 31.6394C76.1664 31.2194 75.6724 30.6209 75.3798 29.9199C75.0872 29.2188 75.0092 28.4467 75.1557 27.7013C75.3022 26.956 75.6667 26.2708 76.2029 25.7327C76.7391 25.1946 77.4229 24.8277 78.1678 24.6785C78.9127 24.5293 79.6851 24.6045 80.3872 24.8945C81.0893 25.1846 81.6895 25.6765 82.1119 26.308C82.5342 26.9394 82.7596 27.682 82.7596 28.4416C82.7596 29.4571 82.3572 30.4312 81.6404 31.1505C80.9236 31.8699 79.9509 32.2759 78.9354 32.2795Z" fill="white"/>
<path d="M114.047 18.5049C114.047 17.5783 113.296 16.8271 112.369 16.8271C111.443 16.8271 110.691 17.5783 110.691 18.5049C110.691 19.4316 111.443 20.1827 112.369 20.1827C113.296 20.1827 114.047 19.4316 114.047 18.5049Z" fill="white"/>
<path d="M113.405 21.9033H111.293C110.985 21.9033 110.735 22.1532 110.735 22.4614V34.423C110.735 34.7312 110.985 34.9811 111.293 34.9811H113.405C113.714 34.9811 113.964 34.7312 113.964 34.423V22.4614C113.964 22.1532 113.714 21.9033 113.405 21.9033Z" fill="white"/>
<path d="M59.5976 21.9025H57.4822C57.4085 21.9016 57.3353 21.9154 57.267 21.943C57.1987 21.9707 57.1366 22.0117 57.0843 22.0637C57.032 22.1157 56.9906 22.1775 56.9625 22.2457C56.9344 22.3138 56.9202 22.3869 56.9206 22.4606V22.5674C55.8685 21.8983 54.6558 21.5241 53.4096 21.4841C52.1633 21.444 50.9291 21.7395 49.8362 22.3397C48.7432 22.9398 47.8316 23.8226 47.1966 24.8957C46.5616 25.9688 46.2266 27.1928 46.2266 28.4397C46.2266 29.6866 46.5616 30.9105 47.1966 31.9836C47.8316 33.0567 48.7432 33.9395 49.8362 34.5397C50.9291 35.1399 52.1633 35.4354 53.4096 35.3953C54.6558 35.3552 55.8685 34.9811 56.9206 34.3119V34.4256C56.9206 34.5727 56.9791 34.7138 57.0831 34.8178C57.1871 34.9219 57.3282 34.9803 57.4753 34.9803H59.5907C59.7381 34.9803 59.8796 34.922 59.9841 34.818C60.0887 34.7141 60.1479 34.5731 60.1488 34.4256V22.4606C60.1488 22.3138 60.091 22.1729 59.9878 22.0684C59.8846 21.9639 59.7444 21.9043 59.5976 21.9025ZM53.1963 32.2793C52.4761 32.2801 51.7702 32.0783 51.1593 31.6969C50.5484 31.3154 50.0571 30.7698 49.7417 30.1224C49.4262 29.4749 49.2993 28.7518 49.3755 28.0357C49.4516 27.3195 49.7277 26.6392 50.1723 26.0726C50.6168 25.5059 51.2118 25.0758 51.8892 24.8314C52.5667 24.5869 53.2992 24.538 54.0032 24.6902C54.7071 24.8424 55.354 25.1896 55.8699 25.6922C56.3858 26.1947 56.75 26.8322 56.9206 27.5319V29.3509C56.7165 30.1851 56.2388 30.9268 55.5637 31.4576C54.8886 31.9884 54.0551 32.2777 53.1963 32.2793Z" fill="white"/>
<path d="M126.095 32.228C126.095 32.1348 126.072 32.0431 126.027 31.9614C125.982 31.8796 125.917 31.8104 125.839 31.76C125.76 31.7097 125.671 31.6798 125.578 31.6731C125.485 31.6663 125.391 31.683 125.307 31.7216C124.507 32.089 123.637 32.2805 122.757 32.2831C120.345 32.2831 118.833 30.5847 118.833 28.4418C118.833 26.2989 120.338 24.6004 122.757 24.6004C123.637 24.6031 124.507 24.7946 125.307 25.162C125.391 25.2014 125.484 25.2188 125.577 25.2127C125.67 25.2066 125.76 25.1771 125.839 25.1269C125.918 25.0768 125.982 25.0076 126.027 24.9258C126.072 24.8441 126.096 24.7523 126.095 24.659V22.5712C126.096 22.4609 126.064 22.3529 126.003 22.2613C125.941 22.1697 125.853 22.0988 125.751 22.0579C124.799 21.6734 123.78 21.4791 122.754 21.486C118.44 21.486 115.519 24.5867 115.519 28.4418C115.519 32.2969 118.44 35.3976 122.754 35.3976C123.78 35.4056 124.799 35.2125 125.751 34.8291C125.854 34.7876 125.941 34.716 126.003 34.6239C126.064 34.5317 126.097 34.4231 126.095 34.3123V32.228Z" fill="white"/>
<defs>
<linearGradient id="paint0_linear_2711_1410" x1="0.00109315" y1="25.7851" x2="44.3332" y2="25.7851" gradientUnits="userSpaceOnUse">
<stop offset="0.02" stop-color="#2ABCF1"/>
<stop offset="1" stop-color="#6A4DE3"/>
</linearGradient>
</defs>
</svg>
