<svg xmlns="http://www.w3.org/2000/svg" version="1.1" xmlns:xlink="http://www.w3.org/1999/xlink" xmlns:svgjs="http://svgjs.com/svgjs" width="1000" height="1000"><g transform="matrix(6.410256410256411,0,0,6.410256410256411,64.10210489615412,0)"><svg xmlns="http://www.w3.org/2000/svg" version="1.1" xmlns:xlink="http://www.w3.org/1999/xlink" xmlns:svgjs="http://svgjs.com/svgjs" width="136" height="156"><svg width="136" height="156" viewBox="0 0 136 156" fill="none" xmlns="http://www.w3.org/2000/svg">
<path d="M32.0001 63.0658C32.0001 61.7264 32.3945 60.4171 33.1335 59.3036C33.8725 58.1901 34.9228 57.3224 36.1515 56.8102C37.3803 56.2981 38.7322 56.1646 40.0363 56.4266C41.3404 56.6885 42.5381 57.3342 43.4777 58.282C44.4174 59.2297 45.0568 60.4369 45.3151 61.7508C45.5734 63.0646 45.439 64.4262 44.9288 65.6631C44.4187 66.9 43.5557 67.9567 42.4492 68.6994C41.3426 69.4422 40.0421 69.8377 38.7124 69.8359C36.9313 69.8334 35.224 69.119 33.9655 67.8497C32.707 66.5803 32.0001 64.8597 32.0001 63.0658ZM29.6948 103.164C24.3916 98.78 19.5377 93.8722 15.2055 88.5141C19.6422 83.55 24.4624 78.9476 29.6207 74.7502C29.8809 74.5347 30.0964 74.2696 30.2549 73.9702C30.4134 73.6708 30.5117 73.3429 30.5444 73.0052C30.5771 72.6675 30.5434 72.3266 30.4453 72.002C30.3471 71.6774 30.1865 71.3755 29.9725 71.1134C29.7585 70.8513 29.4954 70.6343 29.1981 70.4747C28.9009 70.315 28.5753 70.2159 28.24 70.183C27.9047 70.1501 27.5663 70.1841 27.244 70.2829C26.9217 70.3817 26.622 70.5435 26.3618 70.759C21.2927 74.8984 16.5334 79.4085 12.1225 84.2525C7.69701 77.4825 6.20642 71.6729 8.35435 67.9429C10.5023 64.2128 16.1128 62.5902 24.3712 63.0845C25.0471 63.1199 25.7094 62.8847 26.2139 62.4304C26.7184 61.976 27.0241 61.3392 27.0644 60.6588C27.1047 59.9783 26.8763 59.3094 26.4291 58.7978C25.9819 58.2863 25.352 57.9735 24.6768 57.9277C14.2334 57.3029 7.08596 59.8673 3.9011 65.3878C1.91983 68.8567 0.744017 75.0579 6.46565 84.8959C7.12299 86.0336 7.86366 87.1992 8.67839 88.3742C0.725499 98.4453 -1.95941 107.155 1.44765 113.095C4.02146 117.58 9.56719 119.865 17.7052 119.865C20.7357 119.843 23.7599 119.585 26.7506 119.091C27.4234 118.985 28.0267 118.614 28.4278 118.059C28.8289 117.505 28.9949 116.813 28.8893 116.135C28.7837 115.457 28.4152 114.85 27.8648 114.446C27.3144 114.042 26.6272 113.875 25.9544 113.981C15.4184 115.641 8.11363 114.373 5.9009 110.512C3.98443 107.174 5.56759 100.926 11.8725 92.6265C16.252 97.9198 21.1155 102.787 26.3988 107.164C26.8591 107.557 27.4434 107.772 28.0468 107.77C28.5748 107.772 29.0905 107.61 29.5234 107.305C29.9563 107.001 30.2854 106.569 30.4657 106.069C30.646 105.57 30.6687 105.026 30.5307 104.512C30.3927 103.999 30.1008 103.541 29.6948 103.201V103.164ZM37.1477 74.9087C36.8098 74.9063 36.4748 74.9713 36.162 75.1001C35.8492 75.229 35.5649 75.419 35.3256 75.6592C35.0862 75.8994 34.8965 76.1851 34.7675 76.4997C34.6385 76.8142 34.5727 77.1514 34.5739 77.4918V77.986C34.5739 85.0172 34.9072 91.9737 35.5553 98.6971C35.6173 99.3369 35.913 99.9307 36.3852 100.363C36.8574 100.796 37.4723 101.036 38.1106 101.038H38.3605C39.0323 100.969 39.6505 100.638 40.0817 100.114C40.5129 99.5909 40.7227 98.9179 40.6659 98.2402C40.0363 91.7126 39.74 84.8866 39.74 78.0233V77.5477C39.7475 77.2019 39.6857 76.8581 39.5584 76.5369C39.431 76.2156 39.2406 75.9236 38.9986 75.6781C38.7567 75.4326 38.468 75.2388 38.15 75.1082C37.832 74.9776 37.4911 74.913 37.1477 74.918V74.9087ZM75.6993 94.7992C68.3664 98.9397 60.7916 102.63 53.0164 105.849C52.4664 106.078 52.0119 106.491 51.7303 107.019C51.4488 107.547 51.3575 108.157 51.4721 108.745C51.5867 109.333 51.9001 109.863 52.3589 110.245C52.8177 110.627 53.3936 110.836 53.9886 110.838C54.3221 110.837 54.6521 110.77 54.9607 110.643C62.9254 107.342 70.6856 103.562 78.199 99.3219C78.754 98.9674 79.1533 98.4126 79.3151 97.7711C79.477 97.1296 79.389 96.45 79.0694 95.8717C78.7498 95.2934 78.2226 94.8601 77.596 94.6607C76.9694 94.4613 76.2908 94.5109 75.6993 94.7992ZM134.564 35.6873C130.694 28.9452 120.297 27.1827 104.474 30.5957C98.5823 31.904 92.788 33.624 87.1333 35.7432C86.1375 31.2971 84.8761 26.9157 83.3559 22.6228C78.0046 7.82378 70.9868 0 63.0154 0C48.7391 0 40.0363 24.8888 36.6385 48.1829C36.5403 48.8618 36.7138 49.5522 37.121 50.1022C37.5281 50.6522 38.1355 51.0167 38.8096 51.1157C39.4836 51.2146 40.169 51.0398 40.7151 50.6297C41.2611 50.2196 41.6231 49.6078 41.7213 48.9289C45.4709 23.1636 54.2293 5.17544 63.0154 5.17544C68.4686 5.17544 74.1254 12.1786 78.4861 24.3852C80.0097 28.7102 81.2651 33.1264 82.2449 37.6082C72.7517 41.468 63.544 46.0053 54.6922 51.1856C53.1738 52.1181 51.6184 52.9947 50.063 53.9831C49.7749 54.1595 49.524 54.3913 49.3248 54.6653C49.1256 54.9392 48.9819 55.2501 48.902 55.58C48.822 55.9099 48.8074 56.2524 48.8589 56.588C48.9103 56.9237 49.0269 57.2458 49.202 57.536C49.3771 57.8262 49.6072 58.0789 49.8792 58.2796C50.1513 58.4802 50.4599 58.6249 50.7874 58.7055C51.115 58.786 51.4551 58.8008 51.7883 58.7489C52.1215 58.697 52.4413 58.5796 52.7294 58.4033C54.2571 57.4707 55.7754 56.5382 57.2568 55.699C65.6298 50.7963 74.3286 46.4809 83.2911 42.7837C85.1588 53.2506 86.1621 63.8553 86.2908 74.4891C86.3006 75.1677 86.575 75.8152 87.0549 76.2915C87.5348 76.7679 88.1816 77.0349 88.8554 77.0349H88.9017C89.5819 77.0202 90.2289 76.7357 90.7022 76.2434C91.1754 75.751 91.4367 75.0904 91.4292 74.4052C91.2926 63.1628 90.1961 51.9531 88.1517 40.9C110.187 32.6939 126.518 32.1157 130.073 38.3169C132.018 41.7113 130.305 47.5022 125.25 54.6079C119.75 62.2825 110.909 70.8709 99.6506 79.2636C99.38 79.4662 99.1518 79.7206 98.9789 80.0121C98.806 80.3036 98.6917 80.6266 98.6427 80.9625C98.5937 81.2985 98.6109 81.6409 98.6933 81.9702C98.7757 82.2995 98.9216 82.6092 99.1228 82.8817C99.3241 83.1542 99.5766 83.3841 99.866 83.5582C100.155 83.7324 100.476 83.8475 100.81 83.8968C101.143 83.9462 101.483 83.9289 101.81 83.8459C102.137 83.7629 102.445 83.6159 102.715 83.4132C114.399 74.6476 123.63 65.6955 129.416 57.5733C133.879 51.2882 138.378 42.4293 134.564 35.6873ZM102.863 94.6127C102.348 94.1651 101.676 93.9421 100.998 93.9928C100.319 94.0435 99.6876 94.3638 99.2432 94.8831C98.7988 95.4025 98.5774 96.0784 98.6277 96.7622C98.6781 97.446 98.996 98.0816 99.5117 98.5293C115.251 112.153 123.213 125.805 119.38 132.491C116.732 137.154 108.4 138.581 96.5213 136.52C92.0806 135.723 87.7002 134.617 83.4115 133.209C86.6603 123.642 88.8614 113.745 89.9756 103.695C90.0591 103.015 89.8709 102.33 89.4525 101.789C89.0341 101.249 88.4196 100.898 87.7444 100.814C87.0691 100.73 86.3884 100.919 85.8519 101.341C85.3154 101.762 84.967 102.381 84.8836 103.061C83.8098 112.758 81.6863 122.308 78.5509 131.54C69.7217 128.238 61.1886 124.182 53.0442 119.418C52.457 119.121 51.7797 119.062 51.1508 119.253C50.5219 119.443 49.989 119.869 49.6613 120.442C49.3336 121.015 49.2358 121.693 49.3879 122.336C49.54 122.98 49.9306 123.54 50.4797 123.903C58.8359 128.788 67.5886 132.949 76.6437 136.343C76.3659 136.977 76.0882 137.592 75.8012 138.208C71.9127 146.349 67.3854 150.825 63.0617 150.825C56.8031 150.825 50.3686 141.649 45.8598 126.281C45.7637 125.955 45.6049 125.652 45.3924 125.388C45.1799 125.124 44.9179 124.905 44.6213 124.743C44.3247 124.581 43.9993 124.479 43.6638 124.444C43.3282 124.409 42.9891 124.44 42.6657 124.537C42.3423 124.634 42.0409 124.794 41.7789 125.008C41.5169 125.222 41.2992 125.486 41.1385 125.784C40.9777 126.083 40.8769 126.411 40.8419 126.749C40.8069 127.087 40.8383 127.428 40.9343 127.754C46.2857 145.966 54.146 156 63.0617 156C69.5425 156 75.5604 150.619 80.4303 140.455C80.8006 139.681 81.1617 138.87 81.5135 138.049C86.1362 139.58 90.8604 140.779 95.651 141.639C99.0594 142.245 102.513 142.557 105.974 142.572C114.788 142.572 120.991 140.007 123.824 135.056C129.129 125.749 121.287 110.624 102.817 94.6127H102.863ZM79.0138 77.5664L77.3936 76.6339C69.7125 72.1425 61.6988 68.2548 53.4238 65.0054C52.7969 64.7982 52.115 64.8413 51.5188 65.1259C50.9226 65.4105 50.4576 65.9148 50.22 66.5348C49.9823 67.1547 49.9901 67.8429 50.2418 68.4572C50.4934 69.0715 50.9696 69.565 51.5722 69.8359C59.5974 72.9872 67.367 76.7628 74.8105 81.1286L76.3844 82.0611C76.7782 82.3006 77.2298 82.4264 77.6899 82.4248C78.2708 82.451 78.8434 82.2775 79.3136 81.9329C79.7838 81.5882 80.1238 81.0928 80.2777 80.528C80.4316 79.9631 80.3904 79.3624 80.1607 78.8242C79.9311 78.2861 79.5266 77.8426 79.0138 77.5664ZM47.0078 112.834C47.0078 111.497 46.6141 110.19 45.8766 109.078C45.139 107.966 44.0907 107.1 42.8642 106.588C41.6377 106.076 40.2881 105.942 38.986 106.203C37.684 106.464 36.488 107.108 35.5492 108.053C34.6105 108.999 33.9712 110.204 33.7122 111.515C33.4532 112.827 33.5862 114.186 34.0942 115.421C34.6022 116.657 35.4626 117.712 36.5664 118.455C37.6702 119.198 38.968 119.595 40.2955 119.595C42.0757 119.595 43.783 118.882 45.0418 117.615C46.3006 116.347 47.0078 114.627 47.0078 112.834ZM95.6047 88.9617C95.6065 87.6223 95.2139 86.3125 94.4764 85.1979C93.739 84.0834 92.6898 83.2142 91.4618 82.7003C90.2338 82.1865 88.882 82.0511 87.5775 82.3113C86.2731 82.5714 85.0745 83.2155 84.1336 84.1619C83.1926 85.1084 82.5516 86.3146 82.2915 87.6282C82.0313 88.9417 82.1639 90.3034 82.6724 91.541C83.1809 92.7786 84.0423 93.8365 85.1479 94.5808C86.2534 95.3251 87.5534 95.7224 88.8832 95.7224C89.7674 95.7224 90.6429 95.5467 91.4597 95.2053C92.2764 94.8639 93.0182 94.3635 93.6425 93.7329C94.2669 93.1023 94.7617 92.3538 95.0984 91.5302C95.4351 90.7067 95.6071 89.8243 95.6047 88.9337V88.9617Z" fill="url(#paint0_linear_24_66)"></path>
<defs>
<linearGradient id="paint0_linear_24_66" x1="0.00335295" y1="77.986" x2="135.98" y2="77.986" gradientUnits="userSpaceOnUse">
<stop offset="0.02" stop-color="#2ABCF1"></stop>
<stop offset="1" stop-color="#6A4DE3"></stop>
</linearGradient>
</defs>
</svg></svg></g></svg>